<mxfile host="app.diagrams.net" modified="2024-05-31T23:43:08.605Z" agent="Mozilla/5.0 (Windows NT 10.0; Win64; x64) AppleWebKit/537.36 (KHTML, like Gecko) Chrome/122.0.0.0 YaBrowser/24.4.0.0 Safari/537.36" version="24.4.13" etag="rexgPITwFwRDI6LcOODr" type="github">
  <diagram name="Page-1" id="zXI10phHCM7btCPe45Q3">
    <mxGraphModel>
      <root>
        <mxCell id="0" />
        <mxCell id="1" parent="0" />
      </root>
    </mxGraphModel>
  </diagram>
</mxfile>
